<?xml version="1.0" encoding="utf-8"?>
<!-- Generator: Adobe Illustrator 23.0.0, SVG Export Plug-In . SVG Version: 6.00 Build 0)  -->
<svg version="1.1" id="Layer_1" xmlns="http://www.w3.org/2000/svg" xmlns:xlink="http://www.w3.org/1999/xlink" x="0px" y="0px"
	 viewBox="0 0 595.28 841.89" style="enable-background:new 0 0 595.28 841.89;" xml:space="preserve">
<style type="text/css">
	.st0{fill-rule:evenodd;clip-rule:evenodd;fill:#ED1C24;}
	.st1{fill:#ED1C24;stroke:#ED1C24;stroke-width:0.25;stroke-miterlimit:10;}
</style>
<g>
	<path class="st0" d="M298.01,303.58c6.33-3.9,13.84-6.17,21.86-6.17c11.17,0,21.32,4.39,28.68,11.45
		c7.38,7.08,11.96,16.86,11.96,27.63l0,52.66c0,10.75-4.58,20.52-11.96,27.6c-7.36,7.06-17.51,11.45-28.67,11.45
		c-11.18,0-21.34-4.38-28.72-11.45c-7.39-7.08-11.98-16.85-11.98-27.6l0-16.42c0-0.82-0.33-1.85-0.87-2.39
		c-0.54-0.54-1.28-0.58-2.11-0.58l-17.77,0l0,19.4c0,10.75-4.59,20.52-11.98,27.6c-7.37,7.06-17.54,11.45-28.72,11.45
		c-8.23,0-15.9-2.38-22.32-6.46c-6.62-4.21-11.91-10.24-15.07-17.33c-0.55-1.23-0.81-2.51-0.82-3.75c-0.01-1.88,0.55-3.69,1.54-5.22
		c0.99-1.53,2.42-2.78,4.14-3.55c1.16-0.52,2.45-0.81,3.82-0.82l2.79-0.02c1.99-0.01,3.84,0.62,5.37,1.71
		c1.56,1.12,2.8,2.72,3.52,4.59l-0.01,0c1.2,3.11,3.53,5.85,6.57,7.8c2.95,1.89,6.56,3.02,10.45,3.02c4.99,0,9.51-1.72,12.77-4.51
		c3.19-2.72,5.17-6.47,5.17-10.57l0-23.33l-38.6,0c-5.51,0-10.51-2.24-14.12-5.85c-3.61-3.61-5.85-8.61-5.85-14.12l0-13.28
		c0-10.76,4.58-20.54,11.95-27.63c7.36-7.07,17.51-11.46,28.68-11.46c11.18,0,21.35,4.39,28.73,11.46
		c7.39,7.08,11.98,16.86,11.98,27.63l0,13.22l22.74,0c5.72,0,10.91,2.32,14.67,6.07c3.76,3.75,6.09,8.94,6.1,14.66h0.01l0,22.63
		c0,4.11,1.98,7.85,5.17,10.57c3.26,2.78,7.78,4.51,12.77,4.51c4.98,0,9.49-1.73,12.75-4.51c3.18-2.72,5.16-6.46,5.16-10.57
		l-0.01-60.55c0-4.1-1.98-7.84-5.17-10.57c-3.26-2.79-7.77-4.52-12.74-4.51c-3.76,0-7.26,0.99-10.15,2.67
		c-2.94,1.71-5.25,4.14-6.57,6.97c-0.99,2.13-2.54,3.91-4.44,5.17c-1.87,1.23-4.08,1.95-6.42,1.98l-0.57,0
		c-1.58,0.02-3.04-0.32-4.33-0.94c-1.65-0.8-3.02-2.05-3.97-3.56c-0.95-1.5-1.49-3.27-1.51-5.11c-0.02-1.47,0.29-2.97,0.99-4.42
		C286.19,313.38,291.47,307.61,298.01,303.58 M201.08,349.73l34.58,0l0-17.19c0-4.1-1.98-7.84-5.18-10.57
		c-3.26-2.78-7.78-4.51-12.76-4.51c-4.97,0-9.48,1.73-12.74,4.52c-3.19,2.73-5.17,6.47-5.17,10.57l0,15.91
		c0,0.35,0.14,0.67,0.37,0.9C200.41,349.58,200.73,349.73,201.08,349.73z M339.52,273.87c0,3.7-1.5,7.04-3.92,9.47
		c-2.42,2.42-5.77,3.92-9.46,3.92c-3.7,0-7.04-1.5-9.47-3.92c-2.42-2.42-3.92-5.77-3.92-9.46c0-3.7,1.5-7.04,3.92-9.47
		c2.42-2.42,5.77-3.92,9.46-3.92c3.7,0,7.04,1.5,9.46,3.92C338.02,266.82,339.52,270.17,339.52,273.87z M91.07,308.9
		c7.37-7.07,17.53-11.46,28.7-11.46c11.17,0,21.33,4.39,28.7,11.46c7.38,7.08,11.97,16.86,11.97,27.62l0,52.66
		c0,10.74-4.58,20.51-11.97,27.6c-7.37,7.07-17.53,11.45-28.69,11.46c-11.16,0-21.32-4.39-28.7-11.45
		c-7.39-7.08-11.98-16.85-11.98-27.59l0-52.66C79.1,325.76,83.68,315.98,91.07,308.9z M132.52,403.67
		c3.18-2.72,5.16-6.46,5.16-10.57l-0.01-60.55c0-4.1-1.98-7.84-5.17-10.57c-3.26-2.79-7.77-4.52-12.74-4.52
		c-4.99,0-9.5,1.73-12.76,4.51c-3.2,2.73-5.18,6.47-5.18,10.57l0.01,60.55c0,4.11,1.98,7.85,5.17,10.57
		c3.26,2.78,7.78,4.51,12.77,4.51C124.75,408.18,129.27,406.45,132.52,403.67z M151.06,273.88c0,3.7-1.5,7.04-3.92,9.47
		c-2.42,2.42-5.77,3.92-9.46,3.92c-3.7,0-7.04-1.5-9.47-3.92c-2.42-2.42-3.92-5.77-3.92-9.46c0-3.7,1.5-7.04,3.92-9.47
		c2.42-2.42,5.77-3.92,9.46-3.92c3.7,0,7.04,1.5,9.46,3.92C149.56,266.84,151.06,270.19,151.06,273.88z M115.21,273.89
		c0,3.7-1.5,7.04-3.92,9.47c-2.42,2.42-5.77,3.92-9.46,3.92c-3.7,0-7.04-1.5-9.47-3.92c-2.42-2.42-3.92-5.77-3.92-9.46
		c0-3.7,1.5-7.04,3.92-9.47c2.42-2.42,5.77-3.92,9.46-3.92c3.7,0,7.04,1.5,9.47,3.92C113.71,266.84,115.21,270.19,115.21,273.89z
		 M516.97,295.71l0.01,119.78c0,3.14-1.28,5.99-3.33,8.04h-0.01c-2.06,2.06-4.91,3.34-8.04,3.34c-1.53,0-3-0.31-4.34-0.86
		c-1.4-0.58-2.66-1.42-3.71-2.46l-0.01-0.01c-1.03-1.04-1.88-2.3-2.46-3.71c-0.55-1.34-0.86-2.81-0.86-4.34l-0.01-120.03
		c0-4.01-1.97-7.67-5.16-10.33c-3.26-2.73-7.77-4.43-12.75-4.43c-5,0-9.52,1.7-12.78,4.43c-3.19,2.67-5.17,6.33-5.17,10.34
		l0.01,54.44l0.13,0l0,39.24c0,10.75-4.58,20.52-11.97,27.6c-7.36,7.06-17.52,11.44-28.7,11.44c-11.16,0-21.32-4.39-28.69-11.45
		c-7.39-7.08-11.98-16.85-11.98-27.59l0-52.29c0-9.11,3.69-17.36,9.66-23.33c5.97-5.97,14.22-9.66,23.33-9.66
		c3.13,0,5.98,1.28,8.04,3.34c2.06,2.05,3.34,4.9,3.34,8.04c0,1.53-0.31,3-0.87,4.34c-0.58,1.39-1.43,2.64-2.48,3.69
		c-1.04,1.05-2.3,1.9-3.69,2.48c-1.34,0.56-2.81,0.87-4.34,0.87c-2.82,0-5.38,1.15-7.23,3c-1.85,1.85-3,4.41-3,7.23l0.01,56.21
		c0,4.11,1.98,7.85,5.16,10.57c3.26,2.79,7.78,4.51,12.75,4.51c5,0,9.52-1.72,12.78-4.51c3.19-2.72,5.17-6.47,5.17-10.58l0-23.33
		l-0.13,6.49l-0.01-80.52c0-9.68,4.61-18.47,12.04-24.84c7.36-6.3,17.49-10.22,28.63-10.22c11.12,0,21.26,3.91,28.62,10.22
		C512.35,277.24,516.97,286.03,516.97,295.71z"/>
	<path class="st0" d="M84.85,474.26c3.99-3.83,9.49-6.2,15.53-6.19v-0.01l0,0.01c0.44,0,3.28,0.01,3.71,0.04
		c5.53,0.32,10.53,2.62,14.23,6.17c4.02,3.86,6.51,9.2,6.51,15.09h0.01l-0.01,0l-0.03,34.36c0,2.25-0.91,4.28-2.38,5.75
		c-1.47,1.46-3.5,2.37-5.74,2.37c-2.25,0-4.28-0.91-5.75-2.38c-1.46-1.47-2.37-3.5-2.37-5.74l0.01-8.13l-14.03-0.01l-0.01,2.71
		l0,5.42c0,2.24-0.91,4.27-2.38,5.74l0.01,0.01c-1.46,1.46-3.49,2.37-5.75,2.37c-2.24,0-4.28-0.91-5.75-2.38
		c-1.46-1.46-2.37-3.49-2.37-5.73l0.02-34.37C78.32,483.45,80.82,478.11,84.85,474.26 M94.55,487.47l0,13.18l14.03,0.01l0-13.17
		h-0.01l0.01,0c0-1.11-0.58-2.16-1.51-2.96c-1.08-0.93-5.01-1.5-6.69-1.51v0.01l2.41-0.01c-1.7,0-5.63,0.57-6.71,1.5
		C95.13,485.31,94.55,486.36,94.55,487.47l0.01,0L94.55,487.47z"/>
	<path class="st0" d="M351.68,470.44c1.47-1.46,3.5-2.37,5.74-2.37c2.25,0,4.28,0.91,5.75,2.39c1.46,1.46,2.37,3.5,2.37,5.74
		l-0.04,47.48c0,2.25-0.91,4.28-2.39,5.75c-1.47,1.46-3.5,2.37-5.74,2.37c-2.25,0-4.28-0.91-5.75-2.39
		c-1.46-1.46-2.37-3.5-2.37-5.74l0.01-15.79l-14.01-0.01l-0.01,15.78c0,2.25-0.91,4.28-2.39,5.75c-1.46,1.46-3.49,2.37-5.74,2.37
		c-2.25,0-4.28-0.91-5.75-2.39c-1.46-1.46-2.37-3.5-2.37-5.74l0.04-47.48c0-2.25,0.91-4.28,2.39-5.75c1.47-1.47,3.5-2.37,5.74-2.37
		v-0.01l0,0.01c2.25,0,4.28,0.91,5.75,2.39c1.47,1.47,2.37,3.49,2.37,5.74h0.01l-0.01,0l-0.01,16.75l14.01,0.01l0.01-16.74
		C349.29,473.94,350.21,471.9,351.68,470.44"/>
	<path class="st0" d="M220.71,516.87l16.95,0.01v-0.01l0,0.01c2.06,0,3.94,0.84,5.29,2.19c1.35,1.35,2.19,3.22,2.19,5.28v0.01h-0.01
		c0,2.07-0.84,3.94-2.19,5.29c-1.36,1.35-3.22,2.19-5.28,2.19l0-0.01l-16.95-0.01v0.01l0-0.01c-6.05,0-11.55-2.38-15.54-6.21
		c-4.02-3.86-6.51-9.2-6.51-15.08h-0.01l0.01,0l0.01-21.21c0-5.89,2.51-11.23,6.55-15.09c4-3.82,9.5-6.2,15.53-6.19l16.71,0.01
		c2.07,0,3.94,0.84,5.29,2.2c1.35,1.35,2.18,3.22,2.18,5.28c0,2.07-0.84,3.94-2.2,5.29c-1.35,1.35-3.22,2.18-5.28,2.18l-16.71-0.01
		v0.01l0-0.01c-1.7,0-3.22,0.57-4.3,1.49c-0.94,0.8-1.52,1.85-1.52,2.95h0.01l-0.01,0l-0.01,5.46l22.53,0.01
		c2.07,0,3.94,0.84,5.29,2.2c1.35,1.35,2.18,3.22,2.18,5.28h0.01l-0.01,0c0,2.07-0.84,3.95-2.18,5.29
		c-1.35,1.35-3.22,2.19-5.29,2.19l0-0.01l-22.53-0.01l0,4.55c0,1.11,0.58,2.17,1.51,2.96C217.49,516.3,219.01,516.87,220.71,516.87"
		/>
	<path class="st0" d="M442.13,470.45c1.47-1.46,3.5-2.37,5.74-2.37c2.25,0,4.28,0.91,5.75,2.39c1.46,1.47,2.37,3.5,2.37,5.74
		l-0.02,33.86h0.01l-0.01,0.01c0,5.87-2.51,11.21-6.54,15.06c-3.71,3.55-8.73,5.86-14.27,6.15c-0.41,0.02-3.15,0.03-3.57,0.03v0.01
		l-0.01-0.01c-3.22,0-6.26-0.69-9.01-1.91c-1.79-0.79-3.44-1.8-4.93-2.99c-1.49,1.2-3.15,2.21-4.93,3
		c-2.32,1.03-4.87,1.67-7.57,1.84c-0.48,0.03-3.41,0.05-3.89,0.05v0.01l0-0.01c-6.04-0.01-11.54-2.38-15.52-6.21
		c-4.02-3.86-6.51-9.2-6.51-15.08h-0.01l0.01,0l0.02-33.86c0-2.25,0.92-4.28,2.39-5.75c1.47-1.46,3.5-2.37,5.74-2.37v-0.01l0,0.01
		c2.25,0,4.28,0.91,5.75,2.39c1.46,1.47,2.37,3.5,2.37,5.74h0.01l-0.01,0l-0.03,35.73h0.01l-0.01,0c0,1.11,0.58,2.17,1.51,2.96
		c1.08,0.92,2.6,1.5,4.29,1.5v-0.01l0,0.01c0.33,0,3.1-0.02,3.42-0.06c1.31-0.17,2.46-0.69,3.33-1.43c0.94-0.8,1.52-1.85,1.52-2.96
		l-0.04-35.73c0-2.24,0.89-4.25,2.34-5.71h0.01c1.44-1.46,3.45-2.37,5.68-2.4l0.03-0.01h0.05v0.01c2.24,0,4.25,0.89,5.72,2.34
		c1.46,1.44,2.37,3.46,2.4,5.7l0.01,0.03v0.05h-0.01c-0.01,11.91,0.07,23.82,0.06,35.73c0,1.11,0.58,2.17,1.51,2.96
		c1.08,0.93,2.61,1.5,4.3,1.5v-0.01l0,0.01c0.36,0,3.03-0.03,3.37-0.07c1.27-0.18,2.39-0.69,3.24-1.41c0.93-0.8,1.52-1.85,1.52-2.96
		h-0.01l0.01,0l0.03-35.72C439.74,473.95,440.65,471.92,442.13,470.45"/>
	<path class="st0" d="M160.56,517.01l16.93,0.01V517l0,0.01c2.06,0,3.94,0.84,5.29,2.19c1.35,1.35,2.19,3.22,2.19,5.28v0.01l-0.01,0
		c0,2.07-0.84,3.94-2.19,5.29c-1.36,1.35-3.22,2.19-5.28,2.19l0-0.01l-16.94-0.01v0.01l0-0.01c-6.05,0-11.55-2.38-15.54-6.21
		c-4.02-3.86-6.51-9.2-6.51-15.08h-0.01l0.01,0l0.01-21.21c0-0.17,0-0.33,0.01-0.49v-0.01v-0.01l0-0.01v-0.01l0.01-12.75h-0.01
		l0.01,0c0-2.25,0.91-4.28,2.38-5.75c1.47-1.46,3.5-2.37,5.74-2.37v-0.01l0,0.01c2.25,0,4.28,0.91,5.75,2.38
		c1.46,1.47,2.37,3.49,2.37,5.74h0.01l-0.01,0c-0.01,27.28-0.02,23.37-0.03,36.36c0,1.12,0.58,2.17,1.51,2.96
		C157.34,516.43,158.87,517.01,160.56,517.01"/>
	<path class="st0" d="M476.2,474.22c3.99-3.83,9.49-6.2,15.53-6.19v-0.01l0,0.01c0.44,0,3.28,0.01,3.71,0.04
		c5.53,0.32,10.53,2.62,14.23,6.17c4.02,3.86,6.51,9.2,6.51,15.09h0.01l-0.01,0l-0.03,34.36c0,2.25-0.91,4.28-2.38,5.75
		c-1.47,1.46-3.5,2.37-5.74,2.37c-2.25,0-4.28-0.91-5.75-2.38c-1.46-1.47-2.37-3.5-2.37-5.74l0.01-8.13l-14.03-0.01l-0.01,2.71
		l0,5.42c0,2.24-0.91,4.27-2.38,5.74l0.01,0.01c-1.46,1.46-3.49,2.37-5.75,2.37c-2.24,0-4.28-0.91-5.75-2.38
		c-1.46-1.46-2.37-3.49-2.37-5.73l0.02-34.37C469.67,483.42,472.17,478.08,476.2,474.22 M485.9,487.43l0,13.18l14.03,0.01l0-13.17
		h-0.01l0.01,0c0-1.11-0.58-2.16-1.51-2.96c-1.08-0.93-5.01-1.5-6.69-1.51v0.01l2.41-0.01c-1.7,0-5.63,0.57-6.71,1.5
		C486.48,485.27,485.9,486.32,485.9,487.43l0.01,0L485.9,487.43z"/>
	<path class="st0" d="M275.05,512.08l-0.01,11.57c0,2.24-0.91,4.28-2.39,5.75c-1.46,1.46-3.49,2.37-5.74,2.37
		c-2.25,0-4.28-0.92-5.75-2.39c-1.46-1.46-2.37-3.5-2.37-5.74l0.04-47.48c0-2.25,0.92-4.28,2.39-5.75c1.47-1.46,3.5-2.37,5.74-2.37
		v-0.01l0,0.01c2.25,0,4.28,0.92,5.75,2.39c1.47,1.47,2.37,3.49,2.37,5.74h0.01l-0.01,0l-0.01,11.53l1.56-1.56l15.94-15.92
		c1.46-1.46,3.38-2.19,5.29-2.19c1.91,0,3.82,0.74,5.27,2.19l0.01-0.01l-0.01,0.01c1.46,1.47,2.2,3.38,2.2,5.28
		c0,1.71-0.58,3.42-1.75,4.81l-15.26,15.26l-1.14,1.14l0,0l-3.18,3.18l3.18,3.18l0,0l1.14,1.14l15.26,15.26
		c1.17,1.39,1.75,3.1,1.75,4.81c0,1.9-0.73,3.82-2.2,5.28l0.01,0.01l-0.01-0.01c-1.46,1.46-3.37,2.19-5.27,2.2
		c-1.91,0-3.83-0.73-5.29-2.19l-15.94-15.92L275.05,512.08z"/>
	<g>
		<path class="st1" d="M100.06,608.78c-0.64,0.39-1.49,0.58-2.54,0.58c-0.92,0-1.65-0.26-2.19-0.79c-0.54-0.53-0.81-1.38-0.81-2.54
			c-0.97,1.17-2.11,2.02-3.4,2.54c-1.29,0.53-2.69,0.79-4.19,0.79c-0.97,0-1.9-0.11-2.77-0.33c-0.88-0.22-1.63-0.58-2.27-1.06
			c-0.64-0.49-1.15-1.11-1.52-1.88c-0.38-0.76-0.56-1.69-0.56-2.77c0-1.22,0.21-2.22,0.63-3s0.97-1.4,1.65-1.88s1.46-0.84,2.33-1.11
			c0.88-0.26,1.77-0.48,2.69-0.65c0.97-0.19,1.9-0.34,2.77-0.44c0.88-0.1,1.65-0.24,2.31-0.42c0.67-0.18,1.19-0.44,1.58-0.79
			c0.39-0.35,0.58-0.86,0.58-1.52c0-0.78-0.15-1.4-0.44-1.88c-0.29-0.47-0.67-0.83-1.13-1.08c-0.46-0.25-0.97-0.42-1.54-0.5
			c-0.57-0.08-1.13-0.13-1.69-0.13c-1.5,0-2.75,0.29-3.75,0.86c-1,0.57-1.54,1.65-1.63,3.23h-3.54c0.06-1.33,0.33-2.46,0.83-3.38
			s1.17-1.66,2-2.23c0.83-0.57,1.79-0.98,2.88-1.23c1.08-0.25,2.22-0.38,3.42-0.38c0.97,0,1.94,0.07,2.9,0.21
			c0.96,0.14,1.83,0.42,2.61,0.86c0.78,0.43,1.4,1.04,1.88,1.81c0.47,0.78,0.71,1.79,0.71,3.04v11.09c0,0.83,0.05,1.45,0.15,1.83
			c0.1,0.39,0.42,0.58,0.98,0.58c0.33,0,0.69-0.07,1.08-0.21V608.78z M94.31,597.73c-0.33,0.25-0.75,0.44-1.25,0.58
			c-0.5,0.14-1.03,0.26-1.58,0.35c-0.56,0.1-1.15,0.18-1.77,0.25s-1.23,0.16-1.81,0.27c-0.58,0.11-1.14,0.25-1.67,0.42
			c-0.53,0.17-0.99,0.4-1.38,0.69c-0.39,0.29-0.7,0.66-0.94,1.1c-0.24,0.45-0.35,1-0.35,1.67c0,0.58,0.12,1.08,0.35,1.48
			c0.24,0.4,0.54,0.73,0.92,0.98c0.38,0.25,0.81,0.43,1.31,0.54c0.5,0.11,1.03,0.17,1.58,0.17c1.17,0,2.17-0.16,3-0.48
			c0.83-0.32,1.51-0.72,2.04-1.21c0.53-0.49,0.92-1.01,1.17-1.58c0.25-0.57,0.38-1.1,0.38-1.61V597.73z"/>
		<path class="st1" d="M122.62,608.86h-3.54v-2.92h-0.08c-0.58,1.2-1.5,2.06-2.75,2.61c-1.25,0.54-2.63,0.81-4.13,0.81
			c-1.67,0-3.12-0.31-4.36-0.92s-2.27-1.44-3.09-2.48c-0.82-1.04-1.44-2.25-1.86-3.61c-0.42-1.36-0.63-2.81-0.63-4.34
			c0-1.53,0.2-2.97,0.6-4.32c0.4-1.35,1.01-2.54,1.83-3.56c0.82-1.03,1.85-1.84,3.09-2.44c1.24-0.6,2.68-0.9,4.32-0.9
			c0.56,0,1.15,0.06,1.79,0.17c0.64,0.11,1.28,0.3,1.92,0.56c0.64,0.26,1.24,0.61,1.81,1.04s1.05,0.97,1.44,1.6h0.08v-11.09h3.54
			V608.86z M105.94,598.27c0,1,0.13,1.98,0.4,2.94c0.26,0.96,0.67,1.81,1.21,2.56c0.54,0.75,1.24,1.35,2.08,1.79
			c0.85,0.45,1.84,0.67,2.98,0.67c1.19,0,2.21-0.24,3.04-0.71c0.83-0.47,1.51-1.09,2.04-1.86c0.53-0.76,0.91-1.63,1.15-2.61
			c0.24-0.97,0.35-1.96,0.35-2.96c0-1.06-0.13-2.08-0.38-3.06s-0.65-1.86-1.19-2.61c-0.54-0.75-1.24-1.36-2.11-1.81
			c-0.86-0.46-1.9-0.69-3.13-0.69c-1.22,0-2.25,0.24-3.06,0.71c-0.82,0.47-1.48,1.1-1.98,1.88s-0.86,1.67-1.08,2.67
			C106.05,596.19,105.94,597.22,105.94,598.27z"/>
		<path class="st1" d="M137.79,608.86H134l-8.01-21.56h3.96l6.05,17.97h0.08l5.88-17.97h3.71L137.79,608.86z"/>
		<path class="st1" d="M167.32,602.03c-0.47,2.39-1.52,4.21-3.13,5.46c-1.61,1.25-3.64,1.88-6.09,1.88c-1.72,0-3.22-0.29-4.48-0.85
			c-1.27-0.57-2.33-1.36-3.19-2.36c-0.86-1-1.51-2.2-1.94-3.59c-0.43-1.39-0.67-2.9-0.73-4.54c0-1.61,0.25-3.11,0.75-4.48
			c0.5-1.38,1.2-2.56,2.11-3.57c0.9-1,1.97-1.78,3.21-2.33c1.24-0.56,2.59-0.83,4.07-0.83c1.92,0,3.51,0.4,4.77,1.19
			c1.26,0.79,2.28,1.8,3.04,3.02c0.76,1.22,1.29,2.56,1.58,4c0.29,1.45,0.41,2.82,0.35,4.13h-16.14c-0.03,0.95,0.08,1.84,0.33,2.69
			c0.25,0.85,0.65,1.6,1.21,2.25c0.56,0.65,1.26,1.17,2.13,1.56c0.86,0.39,1.88,0.58,3.04,0.58c1.47,0,2.7-0.35,3.67-1.04
			c0.97-0.7,1.61-1.75,1.92-3.17H167.32z M163.9,596.02c-0.06-0.83-0.24-1.63-0.56-2.38c-0.32-0.75-0.75-1.4-1.29-1.94
			s-1.19-0.97-1.94-1.29c-0.75-0.32-1.56-0.48-2.42-0.48c-0.92,0-1.74,0.16-2.48,0.48c-0.74,0.32-1.37,0.76-1.9,1.31
			c-0.53,0.56-0.95,1.2-1.25,1.94c-0.31,0.74-0.49,1.52-0.54,2.36H163.9z"/>
		<path class="st1" d="M171.19,587.31h3.34v4.54h0.08c0.86-1.75,1.92-3.04,3.17-3.88c1.25-0.83,2.83-1.22,4.75-1.17v3.75
			c-1.42,0-2.63,0.19-3.63,0.58c-1,0.39-1.81,0.96-2.42,1.71c-0.61,0.75-1.06,1.67-1.33,2.75c-0.28,1.08-0.42,2.31-0.42,3.67v9.59
			h-3.54V587.31z"/>
		<path class="st1" d="M190.12,587.31h4.29v3.13h-4.29v13.38c0,0.42,0.03,0.75,0.1,1c0.07,0.25,0.2,0.45,0.4,0.58
			c0.19,0.14,0.46,0.23,0.81,0.27c0.35,0.04,0.8,0.06,1.35,0.06h1.63v3.13h-2.71c-0.92,0-1.7-0.06-2.36-0.19
			c-0.65-0.13-1.18-0.35-1.58-0.69c-0.4-0.33-0.7-0.81-0.9-1.42c-0.19-0.61-0.29-1.42-0.29-2.42v-13.72h-3.67v-3.13h3.67v-6.46h3.54
			V587.31z"/>
		<path class="st1" d="M202.09,583.43h-3.54v-4.34h3.54V583.43z M198.55,587.31h3.54v21.56h-3.54V587.31z"/>
		<path class="st1" d="M209.76,602.07c0.03,0.81,0.21,1.47,0.54,2s0.77,0.95,1.31,1.27c0.54,0.32,1.15,0.55,1.83,0.69
			c0.68,0.14,1.38,0.21,2.11,0.21c0.56,0,1.14-0.04,1.75-0.13c0.61-0.08,1.17-0.24,1.69-0.46c0.51-0.22,0.94-0.55,1.27-0.98
			c0.33-0.43,0.5-0.98,0.5-1.65c0-0.69-0.2-1.26-0.6-1.69c-0.4-0.43-0.93-0.79-1.58-1.06c-0.65-0.28-1.4-0.51-2.25-0.69
			c-0.85-0.18-1.72-0.37-2.61-0.56c-0.89-0.19-1.75-0.43-2.58-0.71c-0.83-0.28-1.58-0.64-2.25-1.08c-0.67-0.44-1.2-1.01-1.61-1.71
			c-0.4-0.69-0.6-1.56-0.6-2.58c0-1.08,0.24-2.02,0.73-2.79c0.49-0.78,1.11-1.41,1.88-1.9c0.76-0.49,1.63-0.85,2.58-1.08
			s1.91-0.35,2.86-0.35c1.19,0,2.31,0.1,3.36,0.31c1.04,0.21,1.96,0.57,2.75,1.08c0.79,0.51,1.42,1.21,1.9,2.08
			c0.47,0.88,0.75,1.97,0.83,3.27h-3.54c-0.06-0.69-0.24-1.27-0.56-1.73c-0.32-0.46-0.71-0.83-1.17-1.1
			c-0.46-0.28-0.97-0.48-1.54-0.61c-0.57-0.13-1.15-0.19-1.73-0.19c-0.53,0-1.06,0.04-1.61,0.13c-0.54,0.08-1.04,0.23-1.48,0.44
			c-0.44,0.21-0.81,0.49-1.08,0.85c-0.28,0.36-0.42,0.81-0.42,1.33c0,0.64,0.21,1.15,0.65,1.54c0.43,0.39,0.98,0.72,1.65,0.98
			c0.67,0.26,1.42,0.49,2.25,0.67s1.67,0.37,2.5,0.56c0.89,0.2,1.76,0.43,2.61,0.71c0.85,0.28,1.6,0.65,2.25,1.1
			c0.65,0.46,1.18,1.04,1.58,1.73c0.4,0.7,0.6,1.56,0.6,2.59c0,1.28-0.27,2.36-0.81,3.23c-0.54,0.88-1.25,1.58-2.13,2.11
			c-0.88,0.53-1.86,0.9-2.96,1.13c-1.1,0.22-2.19,0.33-3.27,0.33c-1.22,0-2.37-0.13-3.44-0.4c-1.07-0.26-2.02-0.68-2.86-1.25
			c-0.83-0.57-1.5-1.32-2-2.25c-0.5-0.93-0.78-2.06-0.83-3.4H209.76z"/>
		<path class="st1" d="M232.19,583.43h-3.54v-4.34h3.54V583.43z M228.65,587.31h3.54v21.56h-3.54V587.31z"/>
		<path class="st1" d="M237.7,587.31h3.34v3.42h0.08c0.75-1.33,1.72-2.32,2.9-2.96c1.18-0.64,2.55-0.96,4.11-0.96
			c1.42,0,2.6,0.19,3.54,0.58c0.94,0.39,1.71,0.93,2.29,1.63c0.58,0.7,0.99,1.52,1.23,2.48c0.24,0.96,0.35,2.02,0.35,3.19v14.18H252
			v-14.59c0-1.33-0.39-2.39-1.17-3.17c-0.78-0.78-1.85-1.17-3.21-1.17c-1.08,0-2.02,0.17-2.81,0.5c-0.79,0.33-1.45,0.81-1.98,1.42
			c-0.53,0.61-0.92,1.33-1.19,2.15c-0.26,0.82-0.4,1.72-0.4,2.69v12.18h-3.54V587.31z"/>
		<path class="st1" d="M279.48,607.03c0,3.53-0.81,6.18-2.44,7.94s-4.15,2.65-7.57,2.65c-1,0-2.02-0.11-3.06-0.33
			c-1.04-0.22-1.99-0.58-2.84-1.08c-0.85-0.5-1.55-1.15-2.11-1.96c-0.56-0.81-0.86-1.79-0.92-2.96h3.54
			c0.03,0.64,0.23,1.18,0.6,1.63c0.38,0.44,0.83,0.81,1.38,1.08c0.54,0.28,1.13,0.48,1.77,0.6c0.64,0.13,1.25,0.19,1.83,0.19
			c1.17,0,2.15-0.2,2.96-0.6c0.81-0.4,1.47-0.96,2-1.67c0.53-0.71,0.91-1.56,1.15-2.56c0.24-1,0.35-2.11,0.35-3.34v-1.42h-0.08
			c-0.31,0.67-0.7,1.24-1.17,1.73c-0.47,0.49-1.01,0.89-1.61,1.21c-0.6,0.32-1.24,0.56-1.92,0.73s-1.35,0.25-2.02,0.25
			c-1.61,0-3.02-0.29-4.21-0.88c-1.2-0.58-2.2-1.38-3-2.38c-0.81-1-1.41-2.16-1.81-3.48s-0.6-2.72-0.6-4.19
			c0-1.28,0.17-2.58,0.5-3.92s0.89-2.56,1.67-3.67c0.78-1.11,1.81-2.02,3.09-2.73c1.28-0.71,2.85-1.06,4.71-1.06
			c1.36,0,2.61,0.3,3.75,0.9c1.14,0.6,2.03,1.49,2.67,2.69h0.04v-3.09h3.34V607.03z M269.55,605.99c1.17,0,2.16-0.24,2.98-0.73
			c0.82-0.49,1.48-1.13,1.98-1.92c0.5-0.79,0.87-1.69,1.1-2.69c0.24-1,0.35-2,0.35-3c0-0.94-0.11-1.88-0.33-2.79
			c-0.22-0.92-0.58-1.74-1.06-2.48c-0.49-0.74-1.12-1.33-1.9-1.77c-0.78-0.44-1.72-0.67-2.84-0.67c-1.14,0-2.11,0.22-2.92,0.65
			c-0.81,0.43-1.47,1.01-1.98,1.73c-0.51,0.72-0.89,1.56-1.13,2.5c-0.24,0.95-0.35,1.93-0.35,2.96c0,0.97,0.1,1.95,0.29,2.92
			c0.19,0.97,0.53,1.86,1,2.65c0.47,0.79,1.1,1.43,1.88,1.92C267.41,605.74,268.39,605.99,269.55,605.99z"/>
		<path class="st1" d="M312.84,605.15c-0.45,0.7-0.98,1.31-1.61,1.83c-0.63,0.53-1.31,0.97-2.04,1.31s-1.51,0.61-2.33,0.79
			c-0.82,0.18-1.63,0.27-2.44,0.27c-2,0-3.61-0.31-4.84-0.94c-1.22-0.63-2.17-1.37-2.84-2.23c-0.67-0.86-1.1-1.75-1.31-2.67
			c-0.21-0.92-0.31-1.68-0.31-2.29c0-1.17,0.19-2.2,0.56-3.08c0.38-0.89,0.88-1.69,1.5-2.4c0.63-0.71,1.36-1.35,2.21-1.92
			c0.85-0.57,1.74-1.11,2.69-1.61c-0.42-0.58-0.82-1.14-1.21-1.67s-0.74-1.06-1.06-1.58c-0.32-0.53-0.57-1.1-0.75-1.71
			c-0.18-0.61-0.27-1.29-0.27-2.04c0-0.81,0.15-1.58,0.44-2.31c0.29-0.74,0.72-1.39,1.29-1.96c0.57-0.57,1.27-1.02,2.11-1.36
			c0.83-0.33,1.79-0.5,2.88-0.5c0.92,0,1.81,0.13,2.69,0.38c0.88,0.25,1.65,0.63,2.31,1.15c0.67,0.51,1.2,1.15,1.61,1.92
			c0.4,0.77,0.6,1.65,0.6,2.65c0,0.89-0.15,1.72-0.46,2.48c-0.31,0.77-0.72,1.47-1.25,2.11c-0.53,0.64-1.13,1.22-1.79,1.73
			c-0.67,0.51-1.36,0.98-2.08,1.4l5.38,6.55c0.56-1.5,0.88-3.04,0.96-4.63h3.38c-0.08,0.89-0.17,1.65-0.27,2.27
			c-0.1,0.63-0.22,1.2-0.38,1.73c-0.15,0.53-0.34,1.05-0.56,1.56c-0.22,0.51-0.49,1.11-0.79,1.77l5.8,6.71H316L312.84,605.15z
			 M304.04,594.48c-0.7,0.39-1.35,0.79-1.98,1.21c-0.63,0.42-1.17,0.89-1.65,1.42c-0.47,0.53-0.85,1.12-1.13,1.77
			c-0.28,0.65-0.42,1.42-0.42,2.31c0,0.75,0.16,1.44,0.48,2.06c0.32,0.63,0.74,1.15,1.27,1.58c0.53,0.43,1.13,0.77,1.81,1.02
			c0.68,0.25,1.38,0.38,2.11,0.38c1.36,0,2.58-0.32,3.65-0.96c1.07-0.64,1.97-1.5,2.69-2.58L304.04,594.48z M305.18,590.56
			c0.42-0.28,0.87-0.58,1.34-0.92c0.48-0.33,0.91-0.71,1.3-1.13s0.71-0.88,0.96-1.4c0.25-0.51,0.38-1.09,0.38-1.73
			c0-0.86-0.31-1.61-0.92-2.23c-0.62-0.63-1.45-0.94-2.52-0.94c-0.84,0-1.62,0.26-2.35,0.77c-0.73,0.51-1.09,1.31-1.09,2.4
			c0,0.45,0.09,0.89,0.27,1.33s0.41,0.88,0.69,1.31c0.28,0.43,0.59,0.85,0.92,1.27C304.51,589.73,304.84,590.14,305.18,590.56z"/>
		<path class="st1" d="M334.27,587.31h3.33v3.17h0.08c1.61-2.45,3.93-3.67,6.96-3.67c1.33,0,2.54,0.28,3.63,0.83
			c1.08,0.56,1.85,1.5,2.29,2.83c0.72-1.17,1.68-2.07,2.88-2.71c1.19-0.64,2.49-0.96,3.88-0.96c1.08,0,2.06,0.12,2.94,0.35
			c0.88,0.24,1.63,0.6,2.25,1.1c0.63,0.5,1.11,1.15,1.46,1.94c0.35,0.79,0.52,1.74,0.52,2.86v15.8h-3.54v-14.13
			c0-0.67-0.06-1.29-0.17-1.88s-0.32-1.09-0.63-1.52c-0.31-0.43-0.73-0.77-1.27-1.02c-0.54-0.25-1.25-0.38-2.11-0.38
			c-1.72,0-3.09,0.5-4.11,1.5c-1.02,1-1.52,2.33-1.52,4v13.43h-3.54v-14.13c0-0.7-0.06-1.33-0.19-1.92
			c-0.13-0.58-0.34-1.09-0.65-1.52c-0.31-0.43-0.72-0.76-1.25-1c-0.53-0.24-1.18-0.35-1.96-0.35c-1.06,0-1.95,0.21-2.67,0.63
			c-0.72,0.42-1.31,0.92-1.77,1.5s-0.79,1.19-1,1.81c-0.21,0.63-0.31,1.15-0.31,1.56v13.43h-3.54V587.31z"/>
		<path class="st1" d="M388.93,608.78c-0.64,0.39-1.49,0.58-2.54,0.58c-0.92,0-1.65-0.26-2.19-0.79c-0.54-0.53-0.81-1.38-0.81-2.54
			c-0.97,1.17-2.11,2.02-3.4,2.54c-1.29,0.53-2.69,0.79-4.19,0.79c-0.97,0-1.9-0.11-2.77-0.33c-0.88-0.22-1.63-0.58-2.27-1.06
			c-0.64-0.49-1.15-1.11-1.52-1.88c-0.38-0.76-0.56-1.69-0.56-2.77c0-1.22,0.21-2.22,0.63-3s0.96-1.4,1.65-1.88
			c0.68-0.47,1.46-0.84,2.33-1.11c0.88-0.26,1.77-0.48,2.69-0.65c0.97-0.19,1.9-0.34,2.77-0.44c0.88-0.1,1.65-0.24,2.31-0.42
			s1.2-0.44,1.58-0.79c0.39-0.35,0.58-0.86,0.58-1.52c0-0.78-0.15-1.4-0.44-1.88s-0.67-0.83-1.13-1.08
			c-0.46-0.25-0.97-0.42-1.54-0.5c-0.57-0.08-1.13-0.13-1.69-0.13c-1.5,0-2.75,0.29-3.75,0.86c-1,0.57-1.54,1.65-1.63,3.23h-3.54
			c0.06-1.33,0.33-2.46,0.83-3.38s1.17-1.66,2-2.23c0.83-0.57,1.79-0.98,2.88-1.23c1.08-0.25,2.22-0.38,3.42-0.38
			c0.97,0,1.94,0.07,2.9,0.21c0.96,0.14,1.83,0.42,2.61,0.86s1.4,1.04,1.88,1.81c0.47,0.78,0.71,1.79,0.71,3.04v11.09
			c0,0.83,0.05,1.45,0.15,1.83c0.1,0.39,0.42,0.58,0.98,0.58c0.33,0,0.69-0.07,1.08-0.21V608.78z M383.18,597.73
			c-0.33,0.25-0.75,0.44-1.25,0.58c-0.5,0.14-1.03,0.26-1.58,0.35c-0.56,0.1-1.15,0.18-1.77,0.25c-0.63,0.07-1.23,0.16-1.81,0.27
			c-0.58,0.11-1.14,0.25-1.67,0.42c-0.53,0.17-0.99,0.4-1.38,0.69c-0.39,0.29-0.7,0.66-0.94,1.1c-0.24,0.45-0.35,1-0.35,1.67
			c0,0.58,0.12,1.08,0.35,1.48c0.24,0.4,0.54,0.73,0.92,0.98s0.81,0.43,1.31,0.54c0.5,0.11,1.03,0.17,1.58,0.17
			c1.17,0,2.17-0.16,3-0.48c0.83-0.32,1.51-0.72,2.04-1.21c0.53-0.49,0.92-1.01,1.17-1.58c0.25-0.57,0.38-1.1,0.38-1.61V597.73z"/>
		<path class="st1" d="M392.1,587.31h3.33v4.54h0.08c0.86-1.75,1.92-3.04,3.17-3.88c1.25-0.83,2.83-1.22,4.75-1.17v3.75
			c-1.42,0-2.63,0.19-3.63,0.58c-1,0.39-1.81,0.96-2.42,1.71c-0.61,0.75-1.06,1.67-1.33,2.75c-0.28,1.08-0.42,2.31-0.42,3.67v9.59
			h-3.54V587.31z"/>
		<path class="st1" d="M406.32,579.09h3.54v17.64l9.84-9.42h4.75l-8.55,7.84l9.17,13.72h-4.5l-7.38-11.26l-3.34,3.08v8.17h-3.54
			V579.09z"/>
		<path class="st1" d="M446.14,602.03c-0.47,2.39-1.52,4.21-3.13,5.46c-1.61,1.25-3.64,1.88-6.09,1.88c-1.72,0-3.22-0.29-4.48-0.85
			s-2.33-1.36-3.19-2.36c-0.86-1-1.51-2.2-1.94-3.59s-0.67-2.9-0.73-4.54c0-1.61,0.25-3.11,0.75-4.48c0.5-1.38,1.2-2.56,2.11-3.57
			s1.97-1.78,3.21-2.33c1.24-0.56,2.59-0.83,4.07-0.83c1.92,0,3.51,0.4,4.77,1.19c1.26,0.79,2.28,1.8,3.04,3.02
			c0.76,1.22,1.29,2.56,1.58,4c0.29,1.45,0.41,2.82,0.35,4.13h-16.14c-0.03,0.95,0.08,1.84,0.33,2.69c0.25,0.85,0.65,1.6,1.21,2.25
			c0.56,0.65,1.26,1.17,2.13,1.56c0.86,0.39,1.88,0.58,3.04,0.58c1.47,0,2.7-0.35,3.67-1.04c0.97-0.7,1.61-1.75,1.92-3.17H446.14z
			 M442.72,596.02c-0.06-0.83-0.24-1.63-0.56-2.38c-0.32-0.75-0.75-1.4-1.29-1.94s-1.19-0.97-1.94-1.29
			c-0.75-0.32-1.56-0.48-2.42-0.48c-0.92,0-1.74,0.16-2.48,0.48c-0.74,0.32-1.37,0.76-1.9,1.31c-0.53,0.56-0.95,1.2-1.25,1.94
			c-0.31,0.74-0.49,1.52-0.54,2.36H442.72z"/>
		<path class="st1" d="M455.06,587.31h4.29v3.13h-4.29v13.38c0,0.42,0.03,0.75,0.1,1c0.07,0.25,0.2,0.45,0.4,0.58
			c0.19,0.14,0.47,0.23,0.81,0.27c0.35,0.04,0.8,0.06,1.36,0.06h1.63v3.13h-2.71c-0.92,0-1.7-0.06-2.36-0.19s-1.18-0.35-1.58-0.69
			c-0.4-0.33-0.7-0.81-0.9-1.42c-0.2-0.61-0.29-1.42-0.29-2.42v-13.72h-3.67v-3.13h3.67v-6.46h3.54V587.31z"/>
		<path class="st1" d="M467.03,583.43h-3.54v-4.34h3.54V583.43z M463.48,587.31h3.54v21.56h-3.54V587.31z"/>
		<path class="st1" d="M472.53,587.31h3.33v3.42h0.08c0.75-1.33,1.72-2.32,2.9-2.96c1.18-0.64,2.55-0.96,4.11-0.96
			c1.42,0,2.6,0.19,3.54,0.58s1.71,0.93,2.29,1.63c0.58,0.7,0.99,1.52,1.23,2.48s0.35,2.02,0.35,3.19v14.18h-3.54v-14.59
			c0-1.33-0.39-2.39-1.17-3.17s-1.85-1.17-3.21-1.17c-1.08,0-2.02,0.17-2.81,0.5c-0.79,0.33-1.45,0.81-1.98,1.42
			c-0.53,0.61-0.92,1.33-1.19,2.15c-0.26,0.82-0.4,1.72-0.4,2.69v12.18h-3.54V587.31z"/>
		<path class="st1" d="M514.31,607.03c0,3.53-0.81,6.18-2.44,7.94s-4.15,2.65-7.57,2.65c-1,0-2.02-0.11-3.06-0.33
			c-1.04-0.22-1.99-0.58-2.83-1.08c-0.85-0.5-1.55-1.15-2.11-1.96c-0.56-0.81-0.86-1.79-0.92-2.96h3.54
			c0.03,0.64,0.23,1.18,0.6,1.63c0.38,0.44,0.83,0.81,1.38,1.08c0.54,0.28,1.13,0.48,1.77,0.6s1.25,0.19,1.83,0.19
			c1.17,0,2.15-0.2,2.96-0.6c0.81-0.4,1.47-0.96,2-1.67c0.53-0.71,0.91-1.56,1.15-2.56s0.35-2.11,0.35-3.34v-1.42h-0.08
			c-0.31,0.67-0.7,1.24-1.17,1.73s-1.01,0.89-1.61,1.21s-1.24,0.56-1.92,0.73c-0.68,0.17-1.36,0.25-2.02,0.25
			c-1.61,0-3.02-0.29-4.21-0.88c-1.2-0.58-2.2-1.38-3-2.38c-0.81-1-1.41-2.16-1.81-3.48s-0.6-2.72-0.6-4.19
			c0-1.28,0.17-2.58,0.5-3.92c0.33-1.33,0.89-2.56,1.67-3.67c0.78-1.11,1.81-2.02,3.09-2.73c1.28-0.71,2.85-1.06,4.71-1.06
			c1.36,0,2.61,0.3,3.75,0.9c1.14,0.6,2.03,1.49,2.67,2.69h0.04v-3.09h3.34V607.03z M504.39,605.99c1.17,0,2.16-0.24,2.98-0.73
			c0.82-0.49,1.48-1.13,1.98-1.92c0.5-0.79,0.87-1.69,1.1-2.69c0.24-1,0.35-2,0.35-3c0-0.94-0.11-1.88-0.33-2.79
			c-0.22-0.92-0.58-1.74-1.06-2.48c-0.49-0.74-1.12-1.33-1.9-1.77c-0.78-0.44-1.72-0.67-2.83-0.67c-1.14,0-2.11,0.22-2.92,0.65
			c-0.81,0.43-1.47,1.01-1.98,1.73c-0.51,0.72-0.89,1.56-1.13,2.5c-0.24,0.95-0.35,1.93-0.35,2.96c0,0.97,0.1,1.95,0.29,2.92
			c0.19,0.97,0.53,1.86,1,2.65c0.47,0.79,1.1,1.43,1.88,1.92C502.25,605.74,503.22,605.99,504.39,605.99z"/>
	</g>
</g>
</svg>
