<?xml version="1.0" encoding="utf-8"?>
<!-- Generator: Adobe Illustrator 23.0.0, SVG Export Plug-In . SVG Version: 6.00 Build 0)  -->
<svg version="1.1" id="Layer_1" xmlns="http://www.w3.org/2000/svg" xmlns:xlink="http://www.w3.org/1999/xlink" x="0px" y="0px"
	 viewBox="0 0 595.28 841.89" style="enable-background:new 0 0 595.28 841.89;" xml:space="preserve">
<style type="text/css">
	.st0{fill-rule:evenodd;clip-rule:evenodd;fill:#ED1C24;}
	.st1{fill:#ED1C24;stroke:#ED1C24;stroke-width:0.25;stroke-miterlimit:10;}
</style>
<g>
	<path class="st0" d="M344.03,439.31c0,5.12-4.15,9.28-9.27,9.28c-5.12,0-9.28-4.15-9.28-9.28c0-0.23,0.01-0.46,0.03-0.69
		l-0.01-17.86h-0.02v-18.53h0.01l0-22.64h0c0-5.12,4.15-9.28,9.27-9.28c5.12,0,9.27,4.15,9.27,9.28c0,0.21-0.01,0.42-0.02,0.63
		l0,12.09v0.03l0,0.03v0.03v0.03c0.01,0.56,0.01,1.13,0.01,1.7l0,8.09l18.56,0l0-23.75h0.07c0.56-4.59,4.47-8.15,9.21-8.15
		c4.74,0,8.65,3.56,9.21,8.15h0.05v0.51c0.02,0.2,0.02,0.41,0.02,0.62c0,0.21-0.01,0.41-0.02,0.62l0,11.22v0.03v0.03v0.03v0.03
		c0.01,0.57,0.01,1.15,0.01,1.73v8.92h0v5.36l0.01,31.74c0,5.12-4.15,9.28-9.28,9.28c-5.12,0-9.27-4.15-9.27-9.28
		c0-0.18,0.01-0.35,0.02-0.53l-0.01-18.03l-18.56,0l0,18.55H344.03z M65.73,411.49l-18.53,0l0-12.72c-0.01-0.2-0.02-0.41-0.02-0.62
		c0-5.12,4.15-9.27,9.27-9.27s9.27,4.15,9.27,9.27h0L65.73,411.49z M84.29,439.31l-0.01-20.74c0-6.81,0.01-13.61,0.01-20.42
		c0-15.37-12.46-27.83-27.83-27.83c-15.37,0-27.83,12.46-27.83,27.83c0,0.31,0.01,0.61,0.01,0.92l0,12.44h-0.01v18.53h0.02l0,8.59
		c-0.02,0.22-0.02,0.45-0.02,0.69c0,5.12,4.15,9.28,9.27,9.28c5.12,0,9.27-4.15,9.27-9.28h0.01l0-9.28l18.57-0.01l0,8.76
		c-0.01,0.17-0.01,0.35-0.01,0.53c0,5.12,4.15,9.28,9.27,9.28C80.13,448.59,84.28,444.43,84.29,439.31L84.29,439.31z M149.23,430.04
		c5.12,0,9.27,4.15,9.27,9.28c0,5.12-4.15,9.28-9.27,9.28l-13.7-0.01c-0.19,0-0.38,0-0.57-0.01h-0.01h-0.01h-0.01h-0.01l-4.24,0
		l0,0.03c-15.37,0-27.83-12.46-27.83-27.83c0-0.3,0.01-0.59,0.02-0.89c0-7.27-0.01-20.45-0.02-39.85c-0.01-0.14-0.01-0.28-0.01-0.42
		c0-5.12,4.15-9.28,9.27-9.28c5.12,0,9.28,4.15,9.28,9.28c0,0.15-0.01,0.3-0.01,0.45l0,8.02v0.02v0.02v0.02v0.02
		c0.01,0.37,0.01,0.75,0.01,1.13v1.16l0.02,0l-0.01,22.02l0,8.29h0.02v0c0,5.12,4.15,9.27,9.27,9.27
		c9.77,0.01,14.37,0.01,18.02,0.02C148.88,430.04,149.05,430.04,149.23,430.04z M269.82,416.94l-0.01-22.81c0-0.57,0-1.14-0.01-1.7
		v-0.03v-0.03v-0.03v-0.03l0-12.09c0.01-0.21,0.02-0.41,0.02-0.62c0-5.12-4.15-9.28-9.27-9.28c-5.12,0-9.27,4.15-9.27,9.28
		c0.01,30.27,0.01,48.08,0.02,59.19c-0.01,0.18-0.02,0.35-0.02,0.53c0,5.12,4.15,9.28,9.27,9.28c2.74,0,5.21-1.19,6.91-3.09
		l11.65-11.64l1.72,1.72c0.4,0.4,0.81,0.8,1.21,1.2l0.02,0.02l0.02,0.02l0.02,0.02l0.02,0.02l8.55,8.55
		c0.14,0.16,0.28,0.31,0.43,0.45c3.62,3.62,9.49,3.62,13.12,0c3.62-3.62,3.62-9.49,0-13.11h0l-12-11.99l12-11.99l0,0
		c3.62-3.62,3.62-9.5,0-13.12c-3.62-3.62-9.49-3.62-13.12,0c-0.15,0.15-0.29,0.3-0.43,0.45l-8.55,8.55l-0.02,0.02l-0.02,0.02
		l-0.02,0.02l-0.02,0.02c-0.4,0.39-0.8,0.79-1.21,1.2L269.82,416.94z M548.1,411.49l-18.53,0l0-12.72c-0.01-0.2-0.02-0.41-0.02-0.62
		c0-5.12,4.15-9.27,9.27-9.27c5.12,0,9.27,4.15,9.27,9.27L548.1,411.49z M566.66,439.31l-0.01-20.74v-7.09h0
		c0-0.24,0-0.47-0.01-0.71v-0.02v-0.02l0-0.02v-0.02l0-11.52c0.01-0.34,0.02-0.67,0.02-1.02c0-15.37-12.46-27.83-27.83-27.83
		c-15.37,0-27.83,12.46-27.83,27.83c0,0.31,0.01,0.61,0.02,0.92l0,12.44H511v18.53h0.02l0,8.59c-0.02,0.22-0.02,0.45-0.02,0.69
		c0,5.12,4.15,9.28,9.27,9.28c5.12,0,9.28-4.15,9.28-9.28h0.01l0-9.28l18.56-0.01l0,8.76c-0.01,0.17-0.01,0.35-0.01,0.53
		c0,5.12,4.15,9.28,9.27,9.28C562.5,448.59,566.66,444.43,566.66,439.31z M223.56,418.73h-0.23h0h0h0h-27.7v2.43
		c0.21,4.93,4.27,8.87,9.26,8.88h0.32h0h0.39h0.13h0.44h0.13h0.5l0.19,0h0.43h0.25h0.36h0.31h0.66h0.64l0.63,0h0.1h0.52h0.04h0.55
		h0.01h0.53h0.07h0.47h0.12h0.4h0.17h0.34h0.22h0.29h0.27h0.23h0.32h0.18h0.36h0.12H216h0.07l0.45,0h0.02h0.46h0.02h0.43h0.07h0.38
		h0.11h0.33h0.16h0.28l0.2,0h0.46h0.46h0.14h0.31h0.09h0.35h0.05h0.38h0.01h0.39l0.03,0h0.42h0.31h0.1h0.4h0.22h0.17h0.16v0.01
		c5.12,0,9.28,4.15,9.28,9.28c0,5.12-4.15,9.28-9.28,9.28l-13.71-0.01c-0.19,0-0.38,0-0.57-0.01h-0.01h-0.01h-0.01h-0.01l-3.16,0
		c-0.36,0.01-0.72,0.02-1.09,0.02c-15.37,0-27.83-12.46-27.83-27.83v-3.84c0-5.58,0-11.16,0-16.74v-2.04c0-0.3,0.01-0.6,0.02-0.9
		l0.16-2.24c1.56-13.89,13.35-24.69,27.65-24.69c0.36,0,0.73,0.01,1.09,0.02l3.16,0h0.01l0.01,0h0.01h0.01
		c0.19,0,0.37-0.01,0.57-0.01l13.71-0.01v0.01c5.12,0,9.28,4.15,9.28,9.27c0,5.12-4.15,9.27-9.28,9.27v0
		c-4.32,0-9.88-0.01-17.71-0.01h-0.08h-0.38h-0.39v0v0.01c-4.99,0.01-9.05,3.94-9.26,8.88v0.39v2.04h27.69h0h0h0.26
		c5.06,0.07,9.14,4.2,9.14,9.27C232.71,414.54,228.63,418.66,223.56,418.73z M223.58,398.14h-0.26c0.04,0,0.08,0,0.12,0
		C223.48,398.14,223.53,398.14,223.58,398.14z M223.56,420.76h-0.23c0.04,0,0.07,0,0.11,0
		C223.48,420.77,223.52,420.77,223.56,420.76z M473.9,390.44l0.01,0l0-10.84h0c0-5.12,4.15-9.28,9.27-9.28
		c5.12,0,9.27,4.15,9.27,9.28c0,0.21-0.01,0.42-0.02,0.62l0,7.85v0.02l0,0.02v0.02v0.02c0,0.37,0.01,0.75,0.01,1.13l0.01,31.47h0
		c0,15.37-12.46,27.83-27.83,27.83c-7.13,0-13.62-2.68-18.55-7.09c-4.92,4.41-11.42,7.09-18.55,7.09
		c-15.37,0-27.83-12.46-27.83-27.83c0-0.4,0.01-0.79,0.02-1.18c0-7.31-0.01-20.81-0.01-39.99c0-5.12,4.15-9.28,9.27-9.28
		c5.12,0,9.27,4.15,9.27,9.28c0,0.21-0.01,0.41-0.02,0.62l0,8.04v0.02v0.02v0.02v0.02c0.01,0.38,0.01,0.77,0.01,1.16v0.95l0.02-0.01
		l-0.01,30.33h0.01v0c0,5.12,4.15,9.27,9.28,9.27c4.95,0,8.99-3.87,9.26-8.75c0-0.18-0.01-0.35-0.01-0.53c0-0.18,0-0.36,0.01-0.53
		l-0.01-0.09c0-6.3,0.01-17.71,0.01-29.7l0.01,0l0-10.84c0-5.12,4.15-9.28,9.28-9.28c5.12,0,9.27,4.15,9.27,9.28
		c0,0.21-0.01,0.42-0.02,0.62l0,7.85v0.02v0.02v0.02v0.02c0.01,0.37,0.01,0.75,0.01,1.13v1.15l0.02-0.01l-0.01,29.95
		c0,0.13,0,0.25,0,0.38c0,0.04,0,0.09,0,0.13c0.07,5.06,4.19,9.15,9.27,9.15c5.12,0,9.27-4.15,9.27-9.27c0-0.18-0.01-0.36-0.02-0.53
		C473.89,413.91,473.9,402.49,473.9,390.44z"/>
	<path class="st0" d="M343.61,439.1c0,5.12-4.15,9.27-9.27,9.27c-5.12,0-9.27-4.15-9.27-9.27c0-0.23,0.01-0.46,0.03-0.69
		l-0.01-17.86h-0.02v-18.53h0.01l-0.01-22.64h0c0-5.12,4.15-9.27,9.27-9.27c5.12,0,9.27,4.15,9.27,9.27c0,0.21-0.01,0.42-0.02,0.63
		l0,12.09v0.03l0,0.03v0.03v0.03c0,0.56,0.01,1.13,0.01,1.7l0,8.09l18.56,0l0-23.75h0.07c0.56-4.59,4.47-8.15,9.21-8.15
		c4.74,0,8.65,3.56,9.21,8.15h0.05v0.51c0.02,0.2,0.02,0.41,0.02,0.62c0,0.21-0.01,0.41-0.02,0.62l0,11.22v0.03v0.03v0.03v0.03
		c0.01,0.57,0.01,1.15,0.01,1.73V402h0v5.36l0.01,31.74c0,5.12-4.15,9.27-9.27,9.27c-5.12,0-9.28-4.15-9.28-9.27
		c0-0.18,0.01-0.35,0.02-0.53l-0.01-18.03l-18.56,0l0,18.55H343.61z M269.4,416.72l-0.01-22.81c0-0.57,0-1.14-0.01-1.7v-0.03v-0.03
		v-0.03v-0.03l0-12.09c0.01-0.21,0.02-0.41,0.02-0.62c0-5.12-4.15-9.27-9.27-9.27c-5.12,0-9.28,4.15-9.28,9.27
		c0.01,30.27,0.01,48.07,0.02,59.19c-0.01,0.18-0.02,0.35-0.02,0.53c0,5.12,4.15,9.27,9.28,9.27c2.74,0,5.21-1.19,6.9-3.08
		l11.64-11.64l1.72,1.72c0.4,0.4,0.81,0.8,1.21,1.2l0.03,0.02l0.02,0.02l0.02,0.02l0.02,0.02l8.55,8.55
		c0.14,0.16,0.28,0.31,0.42,0.45c3.62,3.62,9.49,3.62,13.12,0c3.62-3.62,3.62-9.49,0-13.11h0l-12-11.99l12-11.99l0,0
		c3.62-3.62,3.62-9.5,0-13.12c-3.62-3.62-9.49-3.62-13.12,0c-0.15,0.15-0.29,0.3-0.42,0.45l-8.55,8.55l-0.02,0.02l-0.02,0.02
		l-0.02,0.02l-0.03,0.02c-0.4,0.39-0.8,0.79-1.21,1.2L269.4,416.72z M547.68,411.28l-18.53,0l0-12.72c-0.01-0.2-0.02-0.41-0.02-0.62
		c0-5.12,4.15-9.27,9.27-9.27s9.27,4.15,9.27,9.27L547.68,411.28z M566.23,439.1l-0.01-20.74v-7.09h0c0-0.24,0-0.47-0.01-0.71v-0.02
		v-0.02l0-0.02v-0.02l0-11.52c0.01-0.34,0.02-0.68,0.02-1.02c0-15.37-12.46-27.83-27.83-27.83c-15.37,0-27.83,12.46-27.83,27.83
		c0,0.31,0.01,0.61,0.02,0.92l0,12.44h-0.01v18.53h0.02l0,8.59c-0.02,0.23-0.03,0.45-0.03,0.69c0,5.12,4.15,9.27,9.28,9.27
		c5.12,0,9.27-4.15,9.27-9.27h0.01l0-9.28l18.56-0.01l0.01,8.76c-0.01,0.17-0.02,0.35-0.02,0.53c0,5.12,4.15,9.27,9.27,9.27
		C562.08,448.38,566.23,444.22,566.23,439.1z M223.14,418.51h-0.23h0h0h0h-27.7v2.43c0.21,4.93,4.27,8.87,9.26,8.88h0.32h0h0.39
		h0.13h0.44h0.13h0.5l0.19,0h0.43h0.25h0.36h0.31h0.66h0.64l0.63,0h0.1h0.52h0.04h0.55h0.01h0.53h0.07h0.47h0.12h0.4h0.18h0.34h0.22
		h0.29h0.27h0.23h0.32h0.18h0.36h0.12h0.41h0.07l0.45,0h0.02h0.46h0.02h0.43h0.07h0.38h0.11h0.33h0.16h0.28l0.2,0h0.47h0.46h0.14
		h0.31h0.09h0.35h0.05h0.38h0.01h0.39l0.03,0h0.42h0.31h0.1h0.4h0.22h0.17h0.17v0.01c5.12,0,9.28,4.15,9.28,9.28
		c0,5.12-4.15,9.27-9.28,9.27l-13.71-0.01c-0.19,0-0.38-0.01-0.57-0.01h-0.01h-0.01h-0.01h-0.01l-3.16,0
		c-0.36,0.01-0.72,0.02-1.09,0.02c-15.37,0-27.83-12.46-27.83-27.82v-3.84c0-5.58,0-11.16,0-16.74v-2.04c0-0.3,0.01-0.6,0.02-0.9
		l0.16-2.24c1.56-13.89,13.35-24.69,27.65-24.69c0.37,0,0.73,0.01,1.09,0.02l3.16,0h0.01l0.01,0h0.01h0.01
		c0.19,0,0.38-0.01,0.57-0.01l13.71-0.01v0.01c5.12,0,9.28,4.15,9.28,9.27c0,5.12-4.15,9.27-9.28,9.27v0
		c-4.32,0-9.88-0.01-17.71-0.01h-0.07h-0.38h-0.39v0v0.01c-4.99,0.01-9.05,3.94-9.26,8.88v0.39v2.04h27.69h0h0h0.26
		c5.06,0.07,9.14,4.2,9.14,9.27C232.29,414.32,228.2,418.45,223.14,418.51z M223.15,397.93h-0.26c0.04,0,0.08,0,0.12,0
		C223.06,397.93,223.1,397.93,223.15,397.93z M223.14,420.55h-0.23c0.04,0,0.07,0,0.11,0C223.05,420.55,223.1,420.55,223.14,420.55z
		 M473.47,390.22l0.01,0l0-10.84h0c0-5.12,4.15-9.27,9.27-9.27c5.12,0,9.28,4.15,9.28,9.27c0,0.21-0.01,0.42-0.02,0.62l0,7.85v0.02
		l0,0.02v0.02v0.02c0,0.37,0.01,0.75,0.01,1.13l0.01,31.47h0c0,15.37-12.46,27.83-27.83,27.83c-7.13,0-13.62-2.68-18.55-7.08
		c-4.92,4.41-11.42,7.08-18.55,7.08c-15.37,0-27.83-12.46-27.83-27.83c0-0.39,0.01-0.79,0.02-1.17c0-7.31-0.01-20.81-0.02-39.99
		c0-5.12,4.15-9.27,9.28-9.27c5.12,0,9.27,4.15,9.27,9.27c0,0.21-0.01,0.41-0.02,0.61l0,8.04v0.02v0.02v0.02v0.02
		c0.01,0.38,0.01,0.77,0.01,1.16v0.95l0.02-0.01l-0.01,30.33h0.01v0.01c0,5.12,4.15,9.28,9.27,9.28c4.95,0,8.99-3.87,9.26-8.75
		c0-0.18-0.01-0.35-0.01-0.53c0-0.18,0-0.36,0.01-0.53l-0.01-0.09c0-6.3,0.01-17.71,0.01-29.7l0.01,0l0-10.84
		c0-5.12,4.15-9.27,9.27-9.27c5.12,0,9.27,4.15,9.27,9.27c0,0.21-0.01,0.42-0.02,0.62l0,7.85v0.02v0.02v0.02v0.02
		c0.01,0.37,0.01,0.75,0.01,1.13v1.15l0.02-0.01l-0.01,29.95c0,0.13,0,0.25,0,0.38c0,0.05,0,0.09,0,0.13
		c0.07,5.06,4.19,9.15,9.27,9.15c5.12,0,9.27-4.15,9.27-9.28c0-0.18-0.01-0.36-0.01-0.53C473.47,413.7,473.47,402.27,473.47,390.22z
		"/>
	<g>
		<path class="st1" d="M194.67,496.03c-0.57,0.35-1.32,0.52-2.27,0.52c-0.82,0-1.47-0.24-1.95-0.71c-0.48-0.47-0.72-1.23-0.72-2.27
			c-0.87,1.04-1.88,1.8-3.03,2.27c-1.15,0.47-2.4,0.71-3.73,0.71c-0.87,0-1.69-0.1-2.47-0.3c-0.78-0.2-1.46-0.51-2.02-0.95
			c-0.57-0.43-1.02-0.99-1.36-1.67c-0.33-0.68-0.5-1.5-0.5-2.47c0-1.09,0.19-1.98,0.56-2.67c0.37-0.69,0.86-1.25,1.47-1.67
			c0.61-0.42,1.3-0.75,2.08-0.98c0.78-0.23,1.58-0.43,2.4-0.58c0.87-0.17,1.69-0.3,2.47-0.39c0.78-0.09,1.47-0.21,2.06-0.37
			c0.59-0.16,1.06-0.4,1.41-0.7c0.35-0.31,0.52-0.76,0.52-1.36c0-0.69-0.13-1.25-0.39-1.67c-0.26-0.42-0.59-0.74-1-0.97
			c-0.41-0.22-0.87-0.37-1.37-0.45c-0.51-0.07-1.01-0.11-1.5-0.11c-1.34,0-2.45,0.25-3.34,0.76s-1.37,1.47-1.45,2.88h-3.16
			c0.05-1.19,0.3-2.19,0.74-3.01c0.45-0.82,1.04-1.48,1.78-1.99c0.74-0.51,1.6-0.87,2.56-1.1c0.97-0.22,1.98-0.33,3.05-0.33
			c0.87,0,1.73,0.06,2.58,0.19c0.85,0.12,1.63,0.38,2.32,0.76s1.25,0.92,1.67,1.62s0.63,1.6,0.63,2.71v9.88
			c0,0.74,0.04,1.29,0.13,1.64c0.09,0.35,0.38,0.52,0.87,0.52c0.3,0,0.62-0.06,0.97-0.19V496.03z M189.55,486.19
			c-0.3,0.22-0.67,0.4-1.11,0.52c-0.45,0.12-0.92,0.23-1.41,0.32c-0.49,0.09-1.02,0.16-1.58,0.22c-0.56,0.06-1.1,0.14-1.62,0.24
			c-0.52,0.1-1.02,0.22-1.49,0.37c-0.47,0.15-0.88,0.35-1.23,0.61c-0.35,0.26-0.63,0.59-0.84,0.98c-0.21,0.4-0.32,0.89-0.32,1.49
			c0,0.52,0.1,0.96,0.32,1.32c0.21,0.36,0.48,0.65,0.82,0.87c0.33,0.22,0.72,0.38,1.17,0.48c0.45,0.1,0.92,0.15,1.41,0.15
			c1.04,0,1.93-0.14,2.67-0.43c0.74-0.28,1.35-0.64,1.82-1.08c0.47-0.43,0.82-0.9,1.04-1.41c0.22-0.51,0.33-0.98,0.33-1.43V486.19z"
			/>
		<path class="st1" d="M214.77,496.11h-3.16v-2.6h-0.07c-0.52,1.07-1.34,1.84-2.45,2.32c-1.11,0.48-2.34,0.72-3.68,0.72
			c-1.49,0-2.78-0.27-3.88-0.82c-1.1-0.55-2.02-1.28-2.75-2.21c-0.73-0.93-1.28-2-1.65-3.21c-0.37-1.21-0.56-2.5-0.56-3.86
			s0.18-2.64,0.54-3.84c0.36-1.2,0.9-2.26,1.64-3.18c0.73-0.92,1.65-1.64,2.75-2.17c1.1-0.53,2.38-0.8,3.84-0.8
			c0.49,0,1.03,0.05,1.6,0.15c0.57,0.1,1.14,0.27,1.71,0.5c0.57,0.24,1.11,0.55,1.62,0.93c0.51,0.38,0.93,0.86,1.28,1.43h0.07v-9.88
			h3.16V496.11z M199.91,486.67c0,0.89,0.12,1.76,0.35,2.62c0.24,0.85,0.6,1.62,1.08,2.28c0.48,0.67,1.1,1.2,1.86,1.6
			c0.75,0.4,1.64,0.59,2.65,0.59c1.06,0,1.97-0.21,2.71-0.63c0.74-0.42,1.35-0.97,1.82-1.65c0.47-0.68,0.81-1.45,1.02-2.32
			c0.21-0.87,0.32-1.75,0.32-2.64c0-0.94-0.11-1.85-0.33-2.73c-0.22-0.88-0.57-1.65-1.06-2.32s-1.11-1.21-1.88-1.62
			c-0.77-0.41-1.7-0.61-2.79-0.61c-1.09,0-2,0.21-2.73,0.63c-0.73,0.42-1.32,0.98-1.76,1.67c-0.45,0.69-0.77,1.49-0.97,2.38
			C200.01,484.81,199.91,485.73,199.91,486.67z"/>
		<path class="st1" d="M228.29,496.11h-3.38l-7.13-19.2h3.53l5.39,16.01h0.07L232,476.9h3.31L228.29,496.11z"/>
		<path class="st1" d="M254.58,490.01c-0.42,2.13-1.35,3.75-2.79,4.87c-1.44,1.11-3.24,1.67-5.42,1.67c-1.53,0-2.87-0.25-3.99-0.76
			c-1.13-0.51-2.07-1.21-2.84-2.1c-0.77-0.89-1.34-1.96-1.73-3.19c-0.38-1.24-0.6-2.59-0.65-4.05c0-1.44,0.22-2.77,0.67-3.99
			c0.45-1.23,1.07-2.28,1.88-3.18c0.81-0.89,1.76-1.58,2.86-2.08c1.1-0.49,2.31-0.74,3.62-0.74c1.71,0,3.13,0.35,4.25,1.06
			c1.13,0.71,2.03,1.6,2.71,2.69c0.68,1.09,1.15,2.28,1.41,3.57c0.26,1.29,0.36,2.51,0.32,3.68h-14.37c-0.02,0.84,0.07,1.64,0.3,2.4
			c0.22,0.76,0.58,1.42,1.08,2.01c0.49,0.58,1.13,1.05,1.89,1.39c0.77,0.35,1.67,0.52,2.71,0.52c1.31,0,2.4-0.31,3.27-0.93
			c0.87-0.62,1.44-1.56,1.71-2.82H254.58z M251.54,484.67c-0.05-0.74-0.22-1.45-0.5-2.12c-0.28-0.67-0.67-1.24-1.15-1.73
			c-0.48-0.48-1.06-0.87-1.73-1.15c-0.67-0.28-1.39-0.43-2.15-0.43c-0.82,0-1.55,0.14-2.21,0.43c-0.66,0.28-1.22,0.68-1.69,1.17
			c-0.47,0.5-0.84,1.07-1.11,1.73c-0.27,0.66-0.43,1.36-0.48,2.1H251.54z"/>
		<path class="st1" d="M258.04,476.9h2.97v4.05h0.07c0.77-1.56,1.71-2.71,2.82-3.45c1.11-0.74,2.53-1.09,4.23-1.04v3.34
			c-1.26,0-2.34,0.17-3.23,0.52c-0.89,0.35-1.61,0.85-2.15,1.52c-0.55,0.67-0.94,1.49-1.19,2.45c-0.25,0.97-0.37,2.06-0.37,3.27
			v8.54h-3.16V476.9z"/>
		<path class="st1" d="M274.9,476.9h3.83v2.79h-3.83v11.92c0,0.37,0.03,0.67,0.09,0.89c0.06,0.22,0.18,0.4,0.35,0.52
			c0.17,0.12,0.41,0.2,0.72,0.24c0.31,0.04,0.71,0.06,1.21,0.06h1.45v2.79h-2.41c-0.82,0-1.52-0.06-2.1-0.17
			c-0.58-0.11-1.05-0.32-1.41-0.61c-0.36-0.3-0.63-0.72-0.8-1.26c-0.17-0.55-0.26-1.26-0.26-2.15v-12.22h-3.27v-2.79h3.27v-5.76
			h3.16V476.9z"/>
		<path class="st1" d="M285.56,473.45h-3.16v-3.86h3.16V473.45z M282.4,476.9h3.16v19.2h-3.16V476.9z"/>
		<path class="st1" d="M292.39,490.05c0.02,0.72,0.19,1.31,0.48,1.78c0.3,0.47,0.69,0.85,1.17,1.13c0.48,0.29,1.03,0.49,1.64,0.61
			c0.61,0.12,1.23,0.19,1.88,0.19c0.49,0,1.02-0.04,1.56-0.11c0.54-0.07,1.05-0.21,1.5-0.41c0.46-0.2,0.84-0.49,1.13-0.87
			c0.3-0.38,0.45-0.87,0.45-1.47c0-0.62-0.18-1.12-0.54-1.5c-0.36-0.38-0.83-0.7-1.41-0.95c-0.58-0.25-1.25-0.45-2.01-0.61
			c-0.76-0.16-1.53-0.33-2.32-0.5c-0.79-0.17-1.56-0.38-2.3-0.63c-0.74-0.25-1.41-0.57-2.01-0.97c-0.6-0.4-1.07-0.9-1.43-1.52
			c-0.36-0.62-0.54-1.39-0.54-2.3c0-0.97,0.22-1.8,0.65-2.49c0.43-0.69,0.99-1.26,1.67-1.69c0.68-0.43,1.45-0.76,2.3-0.97
			c0.85-0.21,1.7-0.32,2.54-0.32c1.06,0,2.06,0.09,2.99,0.28c0.93,0.19,1.75,0.51,2.45,0.97c0.71,0.46,1.27,1.08,1.69,1.86
			c0.42,0.78,0.67,1.75,0.74,2.91h-3.16c-0.05-0.62-0.22-1.13-0.5-1.54c-0.29-0.41-0.63-0.74-1.04-0.98
			c-0.41-0.25-0.87-0.43-1.37-0.54c-0.51-0.11-1.02-0.17-1.54-0.17c-0.47,0-0.95,0.04-1.43,0.11c-0.48,0.07-0.92,0.2-1.32,0.39
			c-0.4,0.19-0.72,0.44-0.97,0.76c-0.25,0.32-0.37,0.72-0.37,1.19c0,0.57,0.19,1.03,0.58,1.37c0.38,0.35,0.87,0.64,1.47,0.87
			c0.59,0.24,1.26,0.43,2.01,0.59c0.74,0.16,1.49,0.33,2.23,0.5c0.79,0.17,1.57,0.39,2.32,0.63c0.76,0.25,1.42,0.58,2.01,0.98
			c0.58,0.41,1.05,0.92,1.41,1.54c0.36,0.62,0.54,1.39,0.54,2.3c0,1.14-0.24,2.1-0.72,2.88c-0.48,0.78-1.11,1.41-1.89,1.88
			c-0.78,0.47-1.66,0.81-2.64,1c-0.98,0.2-1.95,0.3-2.92,0.3c-1.09,0-2.11-0.12-3.07-0.35s-1.8-0.61-2.54-1.11
			c-0.74-0.51-1.34-1.18-1.78-2.01c-0.45-0.83-0.69-1.84-0.74-3.03H292.39z"/>
		<path class="st1" d="M312.37,473.45h-3.16v-3.86h3.16V473.45z M309.22,476.9h3.16v19.2h-3.16V476.9z"/>
		<path class="st1" d="M317.28,476.9h2.97v3.05h0.07c0.67-1.19,1.53-2.07,2.58-2.64c1.05-0.57,2.27-0.85,3.66-0.85
			c1.26,0,2.31,0.17,3.16,0.52c0.84,0.35,1.52,0.83,2.04,1.45c0.52,0.62,0.89,1.36,1.1,2.21c0.21,0.85,0.32,1.8,0.32,2.84v12.63
			h-3.16v-13c0-1.19-0.35-2.13-1.04-2.82s-1.65-1.04-2.86-1.04c-0.97,0-1.8,0.15-2.51,0.45c-0.7,0.3-1.29,0.72-1.76,1.26
			c-0.47,0.55-0.82,1.18-1.06,1.91c-0.24,0.73-0.35,1.53-0.35,2.4v10.85h-3.16V476.9z"/>
		<path class="st1" d="M354.49,494.47c0,3.14-0.72,5.5-2.17,7.08c-1.45,1.57-3.7,2.36-6.74,2.36c-0.89,0-1.8-0.1-2.73-0.3
			c-0.93-0.2-1.77-0.52-2.53-0.97c-0.76-0.45-1.38-1.03-1.88-1.75c-0.49-0.72-0.77-1.6-0.82-2.64h3.16c0.02,0.57,0.2,1.05,0.54,1.45
			c0.33,0.4,0.74,0.72,1.23,0.97c0.48,0.25,1.01,0.43,1.58,0.54c0.57,0.11,1.11,0.17,1.64,0.17c1.04,0,1.92-0.18,2.64-0.54
			c0.72-0.36,1.31-0.85,1.78-1.49c0.47-0.63,0.81-1.39,1.02-2.28c0.21-0.89,0.32-1.88,0.32-2.97v-1.26h-0.07
			c-0.27,0.6-0.62,1.11-1.04,1.54c-0.42,0.43-0.9,0.79-1.43,1.08c-0.53,0.28-1.1,0.5-1.71,0.65s-1.21,0.22-1.8,0.22
			c-1.44,0-2.69-0.26-3.75-0.78c-1.07-0.52-1.96-1.23-2.67-2.12c-0.72-0.89-1.26-1.93-1.61-3.1c-0.36-1.18-0.54-2.42-0.54-3.73
			c0-1.14,0.15-2.3,0.45-3.49c0.3-1.19,0.79-2.28,1.49-3.27c0.69-0.99,1.61-1.8,2.75-2.43c1.14-0.63,2.54-0.95,4.2-0.95
			c1.21,0,2.33,0.27,3.34,0.8s1.81,1.33,2.38,2.4h0.04v-2.75h2.97V494.47z M345.65,493.54c1.04,0,1.93-0.22,2.66-0.65
			c0.73-0.43,1.32-1,1.76-1.71c0.45-0.71,0.77-1.5,0.98-2.4c0.21-0.89,0.32-1.78,0.32-2.67c0-0.84-0.1-1.67-0.3-2.49
			c-0.2-0.82-0.52-1.55-0.95-2.21c-0.43-0.66-1-1.18-1.69-1.58c-0.69-0.4-1.54-0.59-2.53-0.59c-1.02,0-1.88,0.19-2.6,0.58
			s-1.31,0.9-1.76,1.54c-0.46,0.64-0.79,1.39-1,2.23c-0.21,0.84-0.32,1.72-0.32,2.64c0,0.87,0.09,1.73,0.26,2.6
			c0.17,0.87,0.47,1.65,0.89,2.36c0.42,0.7,0.98,1.28,1.67,1.71C343.75,493.33,344.61,493.54,345.65,493.54z"/>
		<path class="st1" d="M384.21,492.8c-0.4,0.62-0.87,1.16-1.43,1.63c-0.56,0.47-1.16,0.86-1.82,1.17c-0.66,0.31-1.35,0.54-2.08,0.71
			c-0.73,0.16-1.45,0.24-2.17,0.24c-1.78,0-3.22-0.28-4.31-0.84c-1.09-0.56-1.93-1.22-2.53-1.99c-0.59-0.77-0.98-1.56-1.17-2.38
			c-0.19-0.82-0.28-1.5-0.28-2.04c0-1.04,0.17-1.96,0.5-2.75c0.33-0.79,0.78-1.5,1.34-2.14c0.56-0.63,1.21-1.2,1.97-1.71
			c0.76-0.51,1.55-0.98,2.4-1.43c-0.37-0.52-0.73-1.02-1.08-1.49c-0.35-0.47-0.66-0.94-0.95-1.41c-0.28-0.47-0.51-0.98-0.67-1.52
			c-0.16-0.54-0.24-1.15-0.24-1.82c0-0.72,0.13-1.41,0.39-2.06c0.26-0.66,0.64-1.24,1.15-1.75c0.51-0.51,1.13-0.91,1.88-1.21
			c0.74-0.3,1.6-0.45,2.56-0.45c0.82,0,1.62,0.11,2.4,0.33c0.78,0.22,1.47,0.56,2.06,1.02c0.6,0.46,1.07,1.03,1.43,1.71
			c0.36,0.68,0.54,1.47,0.54,2.36c0,0.79-0.14,1.53-0.41,2.21c-0.27,0.68-0.64,1.31-1.11,1.88c-0.47,0.57-1,1.08-1.6,1.54
			c-0.59,0.46-1.21,0.87-1.86,1.24l4.79,5.83c0.49-1.34,0.78-2.71,0.85-4.12h3.01c-0.07,0.79-0.16,1.47-0.24,2.02
			c-0.09,0.56-0.2,1.07-0.33,1.54c-0.14,0.47-0.3,0.94-0.5,1.39c-0.2,0.46-0.43,0.98-0.71,1.58l5.16,5.98h-4.12L384.21,492.8z
			 M376.37,483.29c-0.62,0.35-1.21,0.71-1.77,1.08c-0.56,0.37-1.05,0.79-1.47,1.26c-0.42,0.47-0.76,1-1,1.58
			c-0.25,0.58-0.37,1.27-0.37,2.06c0,0.67,0.14,1.28,0.43,1.84c0.28,0.56,0.66,1.03,1.13,1.41c0.47,0.39,1.01,0.69,1.62,0.91
			c0.61,0.22,1.23,0.33,1.88,0.33c1.21,0,2.3-0.28,3.25-0.85c0.95-0.57,1.75-1.34,2.4-2.3L376.37,483.29z M377.39,479.8
			c0.37-0.25,0.77-0.52,1.19-0.82c0.42-0.3,0.81-0.63,1.16-1c0.35-0.37,0.63-0.79,0.86-1.24c0.22-0.46,0.34-0.97,0.34-1.54
			c0-0.77-0.27-1.43-0.82-1.99c-0.55-0.56-1.3-0.84-2.24-0.84c-0.75,0-1.45,0.23-2.09,0.69c-0.65,0.46-0.97,1.17-0.97,2.14
			c0,0.4,0.08,0.79,0.24,1.19c0.16,0.4,0.37,0.79,0.62,1.17c0.25,0.38,0.52,0.76,0.82,1.13
			C376.79,479.06,377.09,479.43,377.39,479.8z"/>
		<path class="st1" d="M403.3,476.9h2.97v2.82h0.07c1.44-2.18,3.5-3.27,6.2-3.27c1.19,0,2.27,0.25,3.23,0.74
			c0.97,0.5,1.65,1.34,2.04,2.53c0.64-1.04,1.5-1.84,2.56-2.41c1.06-0.57,2.22-0.85,3.45-0.85c0.97,0,1.84,0.11,2.62,0.32
			c0.78,0.21,1.45,0.54,2.01,0.98c0.56,0.45,0.99,1.02,1.3,1.73c0.31,0.71,0.46,1.55,0.46,2.54v14.08h-3.16v-12.59
			c0-0.6-0.05-1.15-0.15-1.67c-0.1-0.52-0.28-0.97-0.56-1.36c-0.27-0.38-0.65-0.69-1.13-0.91c-0.48-0.22-1.11-0.33-1.88-0.33
			c-1.54,0-2.75,0.45-3.66,1.34c-0.9,0.89-1.36,2.08-1.36,3.57v11.96h-3.16v-12.59c0-0.62-0.06-1.19-0.17-1.71
			c-0.11-0.52-0.3-0.97-0.58-1.36c-0.27-0.38-0.64-0.68-1.11-0.89s-1.05-0.32-1.74-0.32c-0.94,0-1.73,0.19-2.38,0.56
			c-0.64,0.37-1.17,0.82-1.58,1.34c-0.41,0.52-0.71,1.06-0.89,1.62c-0.19,0.56-0.28,1.02-0.28,1.39v11.96h-3.16V476.9z"/>
		<path class="st1" d="M451.99,496.03c-0.57,0.35-1.32,0.52-2.27,0.52c-0.82,0-1.47-0.24-1.95-0.71c-0.48-0.47-0.72-1.23-0.72-2.27
			c-0.87,1.04-1.88,1.8-3.03,2.27c-1.15,0.47-2.4,0.71-3.73,0.71c-0.87,0-1.69-0.1-2.47-0.3c-0.78-0.2-1.45-0.51-2.02-0.95
			c-0.57-0.43-1.02-0.99-1.36-1.67c-0.33-0.68-0.5-1.5-0.5-2.47c0-1.09,0.19-1.98,0.56-2.67c0.37-0.69,0.86-1.25,1.47-1.67
			c0.61-0.42,1.3-0.75,2.08-0.98c0.78-0.23,1.58-0.43,2.4-0.58c0.87-0.17,1.69-0.3,2.47-0.39c0.78-0.09,1.47-0.21,2.06-0.37
			c0.6-0.16,1.06-0.4,1.41-0.7c0.35-0.31,0.52-0.76,0.52-1.36c0-0.69-0.13-1.25-0.39-1.67c-0.26-0.42-0.59-0.74-1-0.97
			c-0.41-0.22-0.87-0.37-1.37-0.45c-0.51-0.07-1.01-0.11-1.5-0.11c-1.34,0-2.45,0.25-3.34,0.76c-0.89,0.51-1.37,1.47-1.45,2.88
			h-3.16c0.05-1.19,0.3-2.19,0.74-3.01c0.45-0.82,1.04-1.48,1.78-1.99c0.74-0.51,1.6-0.87,2.56-1.1c0.97-0.22,1.98-0.33,3.05-0.33
			c0.87,0,1.73,0.06,2.58,0.19c0.85,0.12,1.63,0.38,2.32,0.76s1.25,0.92,1.67,1.62c0.42,0.69,0.63,1.6,0.63,2.71v9.88
			c0,0.74,0.04,1.29,0.13,1.64c0.09,0.35,0.38,0.52,0.87,0.52c0.3,0,0.62-0.06,0.97-0.19V496.03z M446.87,486.19
			c-0.3,0.22-0.67,0.4-1.11,0.52c-0.45,0.12-0.92,0.23-1.41,0.32c-0.49,0.09-1.02,0.16-1.58,0.22c-0.56,0.06-1.1,0.14-1.61,0.24
			c-0.52,0.1-1.02,0.22-1.49,0.37c-0.47,0.15-0.88,0.35-1.23,0.61c-0.35,0.26-0.63,0.59-0.84,0.98c-0.21,0.4-0.32,0.89-0.32,1.49
			c0,0.52,0.1,0.96,0.32,1.32c0.21,0.36,0.48,0.65,0.82,0.87c0.33,0.22,0.72,0.38,1.17,0.48c0.45,0.1,0.92,0.15,1.41,0.15
			c1.04,0,1.93-0.14,2.67-0.43c0.74-0.28,1.35-0.64,1.82-1.08c0.47-0.43,0.82-0.9,1.04-1.41c0.22-0.51,0.33-0.98,0.33-1.43V486.19z"
			/>
		<path class="st1" d="M454.81,476.9h2.97v4.05h0.07c0.77-1.56,1.71-2.71,2.82-3.45c1.11-0.74,2.53-1.09,4.23-1.04v3.34
			c-1.26,0-2.34,0.17-3.23,0.52s-1.61,0.85-2.15,1.52c-0.55,0.67-0.94,1.49-1.19,2.45c-0.25,0.97-0.37,2.06-0.37,3.27v8.54h-3.16
			V476.9z"/>
		<path class="st1" d="M467.48,469.59h3.16v15.71l8.77-8.39h4.23l-7.61,6.98l8.17,12.22h-4.01l-6.57-10.03l-2.97,2.75v7.28h-3.16
			V469.59z"/>
		<path class="st1" d="M502.95,490.01c-0.42,2.13-1.35,3.75-2.79,4.87c-1.44,1.11-3.24,1.67-5.42,1.67c-1.54,0-2.87-0.25-3.99-0.76
			c-1.13-0.51-2.07-1.21-2.84-2.1c-0.77-0.89-1.34-1.96-1.73-3.19c-0.38-1.24-0.6-2.59-0.65-4.05c0-1.44,0.22-2.77,0.67-3.99
			c0.44-1.23,1.07-2.28,1.88-3.18c0.8-0.89,1.76-1.58,2.86-2.08c1.1-0.49,2.31-0.74,3.62-0.74c1.71,0,3.13,0.35,4.25,1.06
			c1.13,0.71,2.03,1.6,2.71,2.69c0.68,1.09,1.15,2.28,1.41,3.57c0.26,1.29,0.36,2.51,0.32,3.68h-14.37c-0.03,0.84,0.07,1.64,0.3,2.4
			c0.22,0.76,0.58,1.42,1.08,2.01c0.5,0.58,1.13,1.05,1.89,1.39c0.77,0.35,1.67,0.52,2.71,0.52c1.31,0,2.4-0.31,3.27-0.93
			c0.87-0.62,1.44-1.56,1.71-2.82H502.95z M499.9,484.67c-0.05-0.74-0.22-1.45-0.5-2.12c-0.29-0.67-0.67-1.24-1.15-1.73
			s-1.06-0.87-1.73-1.15c-0.67-0.28-1.39-0.43-2.15-0.43c-0.82,0-1.55,0.14-2.21,0.43c-0.66,0.28-1.22,0.68-1.69,1.17
			c-0.47,0.5-0.84,1.07-1.11,1.73c-0.27,0.66-0.43,1.36-0.48,2.1H499.9z"/>
		<path class="st1" d="M510.9,476.9h3.83v2.79h-3.83v11.92c0,0.37,0.03,0.67,0.09,0.89c0.06,0.22,0.18,0.4,0.35,0.52
			c0.17,0.12,0.41,0.2,0.72,0.24c0.31,0.04,0.71,0.06,1.21,0.06h1.45v2.79h-2.41c-0.82,0-1.52-0.06-2.1-0.17
			c-0.58-0.11-1.05-0.32-1.41-0.61c-0.36-0.3-0.63-0.72-0.8-1.26c-0.17-0.55-0.26-1.26-0.26-2.15v-12.22h-3.27v-2.79h3.27v-5.76
			h3.16V476.9z"/>
		<path class="st1" d="M521.56,473.45h-3.16v-3.86h3.16V473.45z M518.4,476.9h3.16v19.2h-3.16V476.9z"/>
		<path class="st1" d="M526.46,476.9h2.97v3.05h0.07c0.67-1.19,1.53-2.07,2.58-2.64c1.05-0.57,2.27-0.85,3.66-0.85
			c1.26,0,2.31,0.17,3.16,0.52c0.84,0.35,1.52,0.83,2.04,1.45c0.52,0.62,0.89,1.36,1.1,2.21c0.21,0.85,0.32,1.8,0.32,2.84v12.63
			h-3.16v-13c0-1.19-0.35-2.13-1.04-2.82c-0.69-0.69-1.65-1.04-2.86-1.04c-0.97,0-1.8,0.15-2.51,0.45c-0.71,0.3-1.29,0.72-1.76,1.26
			s-0.82,1.18-1.06,1.91c-0.24,0.73-0.35,1.53-0.35,2.4v10.85h-3.16V476.9z"/>
		<path class="st1" d="M563.68,494.47c0,3.14-0.72,5.5-2.17,7.08c-1.45,1.57-3.7,2.36-6.74,2.36c-0.89,0-1.8-0.1-2.73-0.3
			c-0.93-0.2-1.77-0.52-2.53-0.97c-0.76-0.45-1.38-1.03-1.88-1.75s-0.77-1.6-0.82-2.64h3.16c0.02,0.57,0.2,1.05,0.54,1.45
			c0.33,0.4,0.74,0.72,1.23,0.97c0.48,0.25,1.01,0.43,1.58,0.54c0.57,0.11,1.11,0.17,1.64,0.17c1.04,0,1.92-0.18,2.64-0.54
			c0.72-0.36,1.31-0.85,1.78-1.49c0.47-0.63,0.81-1.39,1.02-2.28c0.21-0.89,0.32-1.88,0.32-2.97v-1.26h-0.07
			c-0.27,0.6-0.62,1.11-1.04,1.54c-0.42,0.43-0.9,0.79-1.43,1.08c-0.53,0.28-1.1,0.5-1.71,0.65c-0.61,0.15-1.21,0.22-1.8,0.22
			c-1.44,0-2.69-0.26-3.75-0.78c-1.07-0.52-1.96-1.23-2.67-2.12c-0.72-0.89-1.26-1.93-1.61-3.1c-0.36-1.18-0.54-2.42-0.54-3.73
			c0-1.14,0.15-2.3,0.45-3.49c0.3-1.19,0.79-2.28,1.49-3.27c0.69-0.99,1.61-1.8,2.75-2.43c1.14-0.63,2.54-0.95,4.2-0.95
			c1.21,0,2.33,0.27,3.34,0.8s1.81,1.33,2.38,2.4h0.04v-2.75h2.97V494.47z M554.84,493.54c1.04,0,1.93-0.22,2.66-0.65
			c0.73-0.43,1.32-1,1.76-1.71c0.45-0.71,0.77-1.5,0.98-2.4c0.21-0.89,0.32-1.78,0.32-2.67c0-0.84-0.1-1.67-0.3-2.49
			c-0.2-0.82-0.52-1.55-0.95-2.21c-0.43-0.66-1-1.18-1.69-1.58c-0.69-0.4-1.54-0.59-2.53-0.59c-1.02,0-1.88,0.19-2.6,0.58
			c-0.72,0.38-1.31,0.9-1.76,1.54c-0.46,0.64-0.79,1.39-1,2.23c-0.21,0.84-0.32,1.72-0.32,2.64c0,0.87,0.09,1.73,0.26,2.6
			c0.17,0.87,0.47,1.65,0.89,2.36c0.42,0.7,0.98,1.28,1.67,1.71C552.93,493.33,553.8,493.54,554.84,493.54z"/>
	</g>
</g>
</svg>
